<?xml version="1.0" encoding="utf-8"?>
<!-- Generator: Adobe Illustrator 16.0.0, SVG Export Plug-In . SVG Version: 6.00 Build 0)  -->
<!DOCTYPE svg PUBLIC "-//W3C//DTD SVG 1.1//EN" "http://www.w3.org/Graphics/SVG/1.1/DTD/svg11.dtd">
<svg version="1.1" id="Слой_1" xmlns="http://www.w3.org/2000/svg" xmlns:xlink="http://www.w3.org/1999/xlink" x="0px" y="0px"
	 width="87.87px" height="103.253px" viewBox="253.553 25.53 87.87 103.253" enable-background="new 253.553 25.53 87.87 103.253"
	 xml:space="preserve">
<g>
	<path opacity="0.85" fill="#CCCCCC" enable-background="new    " d="M288.053,128.055L254.29,94.486
		c-0.473-0.469-0.737-1.106-0.737-1.771V61.757c0-0.663,0.264-1.299,0.732-1.768l33.723-33.728c0.47-0.469,1.104-0.732,1.769-0.732
		s1.3,0.264,1.769,0.732l49.146,49.146c0.47,0.469,0.732,1.104,0.732,1.768s-0.264,1.299-0.732,1.768l-49.106,49.106
		C290.61,129.025,289.03,129.027,288.053,128.055z"/>
	<polygon fill="#030303" points="292.133,90.77 305.738,77.195 292.133,63.542 288.352,67.321 298.228,77.195 288.352,86.923 	"/>
</g>
</svg>
