<?xml version="1.0" encoding="utf-8"?>
<!-- Generator: Adobe Illustrator 16.0.0, SVG Export Plug-In . SVG Version: 6.00 Build 0)  -->
<!DOCTYPE svg PUBLIC "-//W3C//DTD SVG 1.1//EN" "http://www.w3.org/Graphics/SVG/1.1/DTD/svg11.dtd">
<svg version="1.1" id="Слой_1" xmlns="http://www.w3.org/2000/svg" xmlns:xlink="http://www.w3.org/1999/xlink" x="0px" y="0px"
	 width="87.869px" height="103.25px" viewBox="48.606 12.532 87.869 103.25" enable-background="new 48.606 12.532 87.869 103.25"
	 xml:space="preserve">
<g>
	<path opacity="0.85" fill="#CCCCCC" enable-background="new    " d="M101.975,115.055l33.763-33.569
		c0.474-0.469,0.737-1.105,0.737-1.771V48.757c0-0.663-0.264-1.299-0.73-1.768L102.02,13.263c-0.47-0.469-1.104-0.73-1.769-0.73
		s-1.299,0.263-1.77,0.73L49.338,62.408c-0.469,0.469-0.732,1.104-0.732,1.768s0.266,1.299,0.732,1.768l49.105,49.107
		C99.419,116.025,100.999,116.027,101.975,115.055z"/>
	<polygon fill="#030303" points="101.677,73.922 91.801,64.195 101.677,54.321 97.896,50.542 84.291,64.195 97.896,77.771 	"/>
</g>
</svg>
