<?xml version="1.0" encoding="utf-8"?>
<!-- Generator: Adobe Illustrator 16.0.0, SVG Export Plug-In . SVG Version: 6.00 Build 0)  -->
<!DOCTYPE svg PUBLIC "-//W3C//DTD SVG 1.1//EN" "http://www.w3.org/Graphics/SVG/1.1/DTD/svg11.dtd">
<svg version="1.1" id="Слой_2" xmlns="http://www.w3.org/2000/svg" xmlns:xlink="http://www.w3.org/1999/xlink" x="0px" y="0px"
	 width="87.87px" height="103.252px" viewBox="253.553 25.531 87.87 103.252" enable-background="new 253.553 25.531 87.87 103.252"
	 xml:space="preserve">
<g id="hover">
	<path opacity="0.85" fill="#CCCCCC" d="M288.053,128.055l-33.763-33.569c-0.472-0.469-0.737-1.107-0.737-1.772V61.757
		c0-0.663,0.264-1.299,0.732-1.768l33.723-33.727c0.47-0.469,1.105-0.732,1.769-0.732s1.299,0.263,1.768,0.732l49.146,49.146
		c0.469,0.469,0.732,1.104,0.732,1.768s-0.264,1.299-0.732,1.768l-49.107,49.106C290.61,129.025,289.03,129.027,288.053,128.055z"/>
	<polygon fill="#CC0033" points="292.133,90.77 305.738,77.195 292.133,63.542 288.352,67.321 298.228,77.195 288.352,86.923 	"/>
</g>
</svg>
