<!-- Created with Inkscape (http://www.inkscape.org/) -->

<svg xmlns:rdf="http://www.w3.org/1999/02/22-rdf-syntax-ns#" xmlns="http://www.w3.org/2000/svg" height="130.79" width="154.7" version="1.1" xmlns:i="&amp;ns_ai;" xmlns:cc="http://creativecommons.org/ns#" xmlns:xlink="http://www.w3.org/1999/xlink" xmlns:dc="http://purl.org/dc/elements/1.1/">
	<g transform="translate(-357.05853,-500.22995)">
		<switch transform="translate(357.06617,500.23105)">
			<g stroke-linejoin="round" stroke="#c41230" stroke-linecap="round" stroke-miterlimit="10" i:extraneous="self" stroke-width="2" fill="none">
				<polygon class="animationPolyOne" opacity="0.35" points="77.379,113.8,137.73,53.452,96.473,11.962,58.43,11.962,16.984,53.405"/>
				<polygon class="animationPolyTwo" opacity="0.15" points="77.381,122.55,146.47,53.464,99.24,5.9668,55.689,5.9668,8.2422,53.41"/>
				<polygon class="animationPolyThree" opacity="0.05" points="77.384,129.8,153.71,53.474,101.53,1,53.42,1,1,53.414"/>
			</g>
		</switch>
		<switch transform="translate(382.79546,517.41091)">
			<g i:extraneous="self">
				<path fill="#c41230" d="M102.53,34.5,68.956,0.7373c-0.469-0.47216-1.108-0.7373-1.773-0.7373h-30.957c-0.66307,0-1.2991,0.26318-1.7681,0.73242l-33.726,33.724c-0.46924,0.469-0.73242,1.105-0.73242,1.768,0,0.66309,0.26318,1.2988,0.73242,1.7676l49.145,49.145c0.48779,0.48828,1.1279,0.73242,1.7676,0.73242,0.63965,0,1.2793-0.24414,1.7676-0.73242l49.107-49.107c0.97461-0.97412,0.97656-2.5532,0.005-3.5303z"/>
				<polygon points="39.09,43.725,44.319,45.41,39.523,51.415" fill="#FFF"/>
				<path fill="#FFF" d="m42.124,27.094-3.689,11.412,0.6626,0.21094,0.05469-0.17041c0.35498-0.32861,0.92383-0.4541,1.4839-0.27344,0.62061,0.19922,1.0298,0.70947,1.0664,1.2422l0.15674,0.05078c0.33691-0.41309,0.96191-0.59082,1.5747-0.39307,0.61328,0.19678,1.0181,0.70508,1.0513,1.2368l0.15674,0.05029c0.33691-0.41309,0.96143-0.58936,1.5747-0.39307,0.55713,0.18018,0.94141,0.61524,1.0342,1.0908l-0.04492,0.13965,0.61816,0.1958,3.6792-11.381c0.56934-1.7695-0.44336-3.6777-2.2607-4.2622l-2.7983-0.90039c-1.8164-0.58447-3.7515,0.37549-4.3203,2.145z"/>
				<rect height="2.1504" width="24.25" y="51.238" x="39.582" fill="#FFF"/>
			</g>
		</switch>
	</g>
</svg>

