<?xml version="1.0" encoding="utf-8"?>
<!-- Generator: Adobe Illustrator 16.0.0, SVG Export Plug-In . SVG Version: 6.00 Build 0)  -->
<!DOCTYPE svg PUBLIC "-//W3C//DTD SVG 1.1//EN" "http://www.w3.org/Graphics/SVG/1.1/DTD/svg11.dtd">
<svg version="1.1" id="Слой_1" xmlns="http://www.w3.org/2000/svg" xmlns:xlink="http://www.w3.org/1999/xlink" x="0px" y="0px"
	 width="103.253px" height="87.87px" viewBox="41.237 19.899 103.253 87.87" enable-background="new 41.237 19.899 103.253 87.87"
	 xml:space="preserve">
<path fill="#C41230" d="M143.761,54.399l-33.568-33.763c-0.47-0.472-1.106-0.737-1.771-0.737H77.462
	c-0.663,0-1.299,0.265-1.769,0.732L41.968,54.355c-0.469,0.471-0.731,1.105-0.731,1.77s0.264,1.299,0.731,1.768l49.146,49.146
	c0.47,0.469,1.104,0.73,1.769,0.73s1.299-0.264,1.769-0.73l49.106-49.107C144.732,56.955,144.734,55.376,143.761,54.399z"/>
<polygon fill="#FFFFFF" points="102.629,54.698 92.901,64.574 83.027,54.698 79.248,58.478 92.901,72.084 106.478,58.478 "/>
</svg>
