<?xml version="1.0" encoding="utf-8"?>
<!-- Generator: Adobe Illustrator 16.0.0, SVG Export Plug-In . SVG Version: 6.00 Build 0)  -->
<!DOCTYPE svg PUBLIC "-//W3C//DTD SVG 1.1//EN" "http://www.w3.org/Graphics/SVG/1.1/DTD/svg11.dtd" [
	<!ENTITY ns_extend "http://ns.adobe.com/Extensibility/1.0/">
	<!ENTITY ns_ai "http://ns.adobe.com/AdobeIllustrator/10.0/">
	<!ENTITY ns_graphs "http://ns.adobe.com/Graphs/1.0/">
	<!ENTITY ns_vars "http://ns.adobe.com/Variables/1.0/">
	<!ENTITY ns_imrep "http://ns.adobe.com/ImageReplacement/1.0/">
	<!ENTITY ns_sfw "http://ns.adobe.com/SaveForWeb/1.0/">
	<!ENTITY ns_custom "http://ns.adobe.com/GenericCustomNamespace/1.0/">
	<!ENTITY ns_adobe_xpath "http://ns.adobe.com/XPath/1.0/">
]>
<svg version="1.1" id="Слой_3" xmlns:x="&ns_extend;" xmlns:i="&ns_ai;" xmlns:graph="&ns_graphs;" xmlns="http://www.w3.org/2000/svg" xmlns:xlink="http://www.w3.org/1999/xlink" x="0px" y="0px" width="103.253px" height="87.869px" viewBox="0 0 103.253 87.869" enable-background="new 0 0 103.253 87.869" xml:space="preserve">
<metadata>
	<sfw  xmlns="&ns_sfw;">
		<slices></slices>
		<sliceSourceBounds  width="103.253" height="87.869" x="251.485" y="-101.87" bottomLeftOrigin="true"></sliceSourceBounds>
	</sfw>
</metadata>
<path fill="#C41230" d="M102.52,49.84L53.411,0.732c-0.977-0.977-2.559-0.977-3.535,0L0.731,49.878
	c-0.469,0.469-0.732,1.104-0.732,1.768s0.264,1.299,0.732,1.768l33.726,33.724c0.469,0.469,1.104,0.732,1.768,0.732h30.957
	c0.665,0,1.304-0.266,1.772-0.737l33.57-33.762C103.496,52.393,103.494,50.814,102.52,49.84z"/>
<rect x="36.973" y="37.148" fill="#FFFFFF" width="29.307" height="4.037"/>
<rect x="36.973" y="54.601" fill="#FFFFFF" width="29.307" height="4.036"/>
<rect x="36.973" y="45.875" fill="#FFFFFF" width="29.307" height="4.036"/>
</svg>
